<svg width="32" height="32" viewBox="0 0 32 32" fill="none" xmlns="http://www.w3.org/2000/svg">
  <!-- Samsung "S" icon -->
  <g fill="currentColor">
    <path d="M16 2C8.268 2 2 8.268 2 16s6.268 14 14 14 14-6.268 14-14S23.732 2 16 2zm5.6 18.8c0 1.4-.6 2.6-1.6 3.4-1 .8-2.4 1.2-4.2 1.2-1.6 0-2.9-.3-3.9-.9-1-.6-1.5-1.4-1.5-2.4h3.2c0 .3.2.6.5.8.3.2.7.3 1.2.3.6 0 1-.1 1.3-.4.3-.3.4-.6.4-1 0-.3-.1-.6-.3-.8-.2-.2-.5-.3-.9-.4l-1.8-.3c-1.1-.2-1.9-.6-2.4-1.1-.5-.5-.8-1.2-.8-2.1 0-1.2.5-2.1 1.4-2.8.9-.7 2.1-1 3.6-1 1.4 0 2.6.3 3.5.9.9.6 1.4 1.4 1.4 2.4h-3.2c0-.3-.2-.5-.4-.7-.3-.2-.7-.3-1.1-.3-.5 0-.9.1-1.2.3-.3.2-.4.5-.4.8 0 .3.1.5.3.7.2.2.5.3.9.4l1.8.3c1.1.2 1.9.6 2.4 1.1.5.5.8 1.2.8 2.1z"/>
  </g>
</svg> 